<svg width="137" height="28" viewBox="0 0 137 28" fill="none" xmlns="http://www.w3.org/2000/svg">
<path d="M1.38507 23.5H7.8447V15.5L12.3167 20.6346L18 14.5L12.3167 8.17608L7.8447 12.5V5.18605H1.38507" stroke="white" stroke-width="2" stroke-linecap="square" stroke-linejoin="round"/>
<path d="M38.8358 21.701L35.5138 16.971C35.1031 17.0003 34.7805 17.015 34.5458 17.015H30.7398V21.701H28.5398V6.30099H34.5458C36.5405 6.30099 38.1098 6.77765 39.2538 7.73099C40.3978 8.68432 40.9698 9.99699 40.9698 11.669C40.9698 12.857 40.6765 13.869 40.0898 14.705C39.5031 15.541 38.6671 16.1497 37.5818 16.531L41.2338 21.701H38.8358ZM34.4798 15.145C35.8731 15.145 36.9365 14.8443 37.6698 14.243C38.4031 13.6417 38.7698 12.7837 38.7698 11.669C38.7698 10.5543 38.4031 9.70366 37.6698 9.11699C36.9365 8.51565 35.8731 8.21499 34.4798 8.21499H30.7398V15.145H34.4798ZM54.7542 15.937C54.7542 16.0983 54.7395 16.311 54.7102 16.575H45.2502C45.3822 17.6017 45.8295 18.4303 46.5922 19.061C47.3695 19.677 48.3302 19.985 49.4742 19.985C50.8675 19.985 51.9895 19.5157 52.8402 18.577L54.0062 19.941C53.4782 20.557 52.8182 21.0263 52.0262 21.349C51.2488 21.6717 50.3762 21.833 49.4082 21.833C48.1762 21.833 47.0835 21.5837 46.1302 21.085C45.1768 20.5717 44.4362 19.8603 43.9082 18.951C43.3948 18.0417 43.1382 17.015 43.1382 15.871C43.1382 14.7417 43.3875 13.7223 43.8862 12.813C44.3995 11.9037 45.0962 11.1997 45.9762 10.701C46.8708 10.1877 47.8755 9.93099 48.9902 9.93099C50.1048 9.93099 51.0948 10.1877 51.9602 10.701C52.8402 11.1997 53.5222 11.9037 54.0062 12.813C54.5048 13.7223 54.7542 14.7637 54.7542 15.937ZM48.9902 11.713C47.9782 11.713 47.1275 12.021 46.4382 12.637C45.7635 13.253 45.3675 14.0597 45.2502 15.057H52.7302C52.6128 14.0743 52.2095 13.275 51.5202 12.659C50.8455 12.0283 50.0022 11.713 48.9902 11.713ZM67.79 10.041L62.686 21.701H60.53L55.426 10.041H57.626L61.63 19.391L65.722 10.041H67.79ZM69.7611 10.041H71.8731V21.701H69.7611V10.041ZM70.8171 7.79699C70.4064 7.79699 70.0618 7.66499 69.7831 7.40099C69.5191 7.13699 69.3871 6.81432 69.3871 6.43299C69.3871 6.05165 69.5191 5.72899 69.7831 5.46499C70.0618 5.18632 70.4064 5.04699 70.8171 5.04699C71.2278 5.04699 71.5651 5.17899 71.8291 5.44299C72.1078 5.69232 72.2471 6.00765 72.2471 6.38899C72.2471 6.78499 72.1078 7.12232 71.8291 7.40099C71.5651 7.66499 71.2278 7.79699 70.8171 7.79699ZM86.4436 15.937C86.4436 16.0983 86.429 16.311 86.3996 16.575H76.9396C77.0716 17.6017 77.519 18.4303 78.2816 19.061C79.059 19.677 80.0196 19.985 81.1636 19.985C82.557 19.985 83.679 19.5157 84.5296 18.577L85.6956 19.941C85.1676 20.557 84.5076 21.0263 83.7156 21.349C82.9383 21.6717 82.0656 21.833 81.0976 21.833C79.8656 21.833 78.773 21.5837 77.8196 21.085C76.8663 20.5717 76.1256 19.8603 75.5976 18.951C75.0843 18.0417 74.8276 17.015 74.8276 15.871C74.8276 14.7417 75.077 13.7223 75.5756 12.813C76.089 11.9037 76.7856 11.1997 77.6656 10.701C78.5603 10.1877 79.565 9.93099 80.6796 9.93099C81.7943 9.93099 82.7843 10.1877 83.6496 10.701C84.5296 11.1997 85.2116 11.9037 85.6956 12.813C86.1943 13.7223 86.4436 14.7637 86.4436 15.937ZM80.6796 11.713C79.6676 11.713 78.817 12.021 78.1276 12.637C77.453 13.253 77.057 14.0597 76.9396 15.057H84.4196C84.3023 14.0743 83.899 13.275 83.2096 12.659C82.535 12.0283 81.6916 11.713 80.6796 11.713ZM106.805 10.041L102.449 21.701H100.425L97.0595 12.857L93.6495 21.701H91.6255L87.2915 10.041H89.2935L92.6815 19.325L96.2015 10.041H97.9835L101.437 19.369L104.913 10.041H106.805ZM119.164 15.937C119.164 16.0983 119.15 16.311 119.12 16.575H109.66C109.792 17.6017 110.24 18.4303 111.002 19.061C111.78 19.677 112.74 19.985 113.884 19.985C115.278 19.985 116.4 19.5157 117.25 18.577L118.416 19.941C117.888 20.557 117.228 21.0263 116.436 21.349C115.659 21.6717 114.786 21.833 113.818 21.833C112.586 21.833 111.494 21.5837 110.54 21.085C109.587 20.5717 108.846 19.8603 108.318 18.951C107.805 18.0417 107.548 17.015 107.548 15.871C107.548 14.7417 107.798 13.7223 108.296 12.813C108.81 11.9037 109.506 11.1997 110.386 10.701C111.281 10.1877 112.286 9.93099 113.4 9.93099C114.515 9.93099 115.505 10.1877 116.37 10.701C117.25 11.1997 117.932 11.9037 118.416 12.813C118.915 13.7223 119.164 14.7637 119.164 15.937ZM113.4 11.713C112.388 11.713 111.538 12.021 110.848 12.637C110.174 13.253 109.778 14.0597 109.66 15.057H117.14C117.023 14.0743 116.62 13.275 115.93 12.659C115.256 12.0283 114.412 11.713 113.4 11.713ZM124.121 11.999C124.488 11.3243 125.03 10.811 125.749 10.459C126.468 10.107 127.34 9.93099 128.367 9.93099V11.977C128.25 11.9623 128.088 11.955 127.883 11.955C126.739 11.955 125.837 12.2997 125.177 12.989C124.532 13.6637 124.209 14.6317 124.209 15.893V21.701H122.097V10.041H124.121V11.999Z" fill="white"/>
</svg>
